<?xml version="1.0" encoding="iso-8859-1"?>
<!-- Uploaded to: SVG Repo, www.svgrepo.com, Generator: SVG Repo Mixer Tools -->
<!DOCTYPE svg PUBLIC "-//W3C//DTD SVG 1.1//EN" "http://www.w3.org/Graphics/SVG/1.1/DTD/svg11.dtd">
<svg fill="#000000" height="800px" width="800px" version="1.1" id="Capa_1" xmlns="http://www.w3.org/2000/svg" xmlns:xlink="http://www.w3.org/1999/xlink" 
	 viewBox="0 0 292 292" xml:space="preserve">
<g>
	<path d="M208.764,114.734c-0.569,0-1.297,0-1.851,0.043c-0.608,0.047-1.912,0.849-1.912,2.544v57.841
		c0,1.197,1.631,1.822,2.426,1.835c0.276,0.005,0.622,0.005,0.861,0.005c8.347,0,15.673-8.214,15.673-32.856
		C223.959,125.862,219.23,114.734,208.764,114.734z"/>
	<path d="M143.712,114.734c-0.569,0-1.271,0-1.826,0.043c-0.608,0.047-1.886,0.849-1.886,2.544v57.841
		c0,1.197,1.606,1.822,2.4,1.835c0.276,0.005,0.609,0.005,0.848,0.005c8.347,0,15.666-8.214,15.666-32.856
		C158.914,125.862,154.179,114.734,143.712,114.734z"/>
	<path d="M271,25c0-13.807-11.193-25-25-25H46C32.193,0,21,11.193,21,25v242c0,13.807,11.193,25,25,25h200c13.807,0,25-11.193,25-25
		V25z M52.729,21.107c8.931,0,16.17,7.24,16.17,16.17c0,8.931-7.24,16.171-16.17,16.171c-8.931,0-16.171-7.24-16.171-16.171
		C36.558,28.347,43.798,21.107,52.729,21.107z M52.729,278.188c-8.931,0-16.171-7.24-16.171-16.171c0-8.931,7.24-16.17,16.171-16.17
		c8.931,0,16.17,7.24,16.17,16.17C68.9,270.948,61.66,278.188,52.729,278.188z M107,188.515c0,1.1-0.358,2.485-1.458,2.485H92.187
		c-1.1,0-2.187-1.385-2.187-2.485v-33.361c0-1.1-0.713-2.154-1.813-2.154H74.036c-1.1,0-2.036,1.054-2.036,2.154v33.361
		c0,1.1-0.864,2.485-1.964,2.485H56.681c-1.1,0-2.681-1.385-2.681-2.485V103.22c0-1.1,1.581-2.22,2.681-2.22h13.355
		c1.1,0,1.964,1.12,1.964,2.22v31.771c0,1.1,0.936,2.009,2.036,2.009h14.151c1.1,0,1.813-0.909,1.813-2.009V103.22
		c0-1.1,1.087-2.22,2.187-2.22h13.355c1.1,0,1.458,1.12,1.458,2.22V188.515z M164.512,182.566
		c-5.962,5.829-14.838,8.611-27.291,8.611c-3.844,0-7.643-0.265-10.783-0.561c-1.298-0.122-3.438-1.293-3.438-2.889v-80.412
		c0-3.191,2.837-5.385,4.517-5.628c3.777-0.547,8.27-0.864,13.038-0.864c11.261,0,19.067,2.65,24.764,7.949
		c7.684,6.89,11.653,18.681,11.653,36.036C176.971,162.826,172.329,175.677,164.512,182.566z M191.464,190.616
		c-1.298-0.122-3.464-1.293-3.464-2.889v-80.412c0-3.191,2.862-5.385,4.543-5.628c3.777-0.547,8.283-0.864,13.051-0.864
		c11.261,0,19.073,2.65,24.77,7.949c7.684,6.89,11.656,18.681,11.656,36.036c0,18.018-4.638,30.869-12.455,37.758
		c-5.962,5.829-14.83,8.611-27.283,8.611C198.438,191.177,194.603,190.912,191.464,190.616z M239.938,278.188
		c-8.931,0-16.171-7.24-16.171-16.171c0-8.931,7.24-16.17,16.171-16.17c8.931,0,16.171,7.24,16.171,16.17
		C256.108,270.948,248.868,278.188,239.938,278.188z M239.938,53.448c-8.931,0-16.171-7.24-16.171-16.171
		c0-8.931,7.24-16.17,16.171-16.17c8.931,0,16.171,7.24,16.171,16.17C256.108,46.208,248.868,53.448,239.938,53.448z"/>
</g>
</svg>