<?xml version="1.0" ?>
<!DOCTYPE svg  PUBLIC '-//W3C//DTD SVG 1.1//EN'  'http://www.w3.org/Graphics/SVG/1.1/DTD/svg11.dtd'>
<!-- Uploaded to: SVG Repo, www.svgrepo.com, Generator: SVG Repo Mixer Tools -->
<svg width="800px" height="800px" viewBox="0 0 32 32" enable-background="new 0 0 32 32" version="1.1" xml:space="preserve" xmlns="http://www.w3.org/2000/svg" xmlns:xlink="http://www.w3.org/1999/xlink">
<g id="Layer_2"/>
<g id="Layer_3"/>
<g id="Layer_4"/>
<g id="Layer_5"/>
<g id="Layer_6"/>
<g id="Layer_7"/>
<g id="Layer_8"/>
<g id="Layer_9"/>
<g id="Layer_10"/>
<g id="Layer_11"/>
<g id="Layer_12"/>
<g id="Layer_13"/>
<g id="Layer_14">
<g>
<path d="M25,29h-7c-0.5527,0-1-0.4473-1-1s0.4473-1,1-1h7c0.5518,0,1-0.4482,1-1v-3c0-0.5527,0.4473-1,1-1    s1,0.4473,1,1v3C28,27.6543,26.6543,29,25,29z" fill="#96CEE5"/>
</g>
<g>
<path d="M27,16c-0.5527,0-1-0.4473-1-1V8c0-2.7568-2.2432-5-5-5H11C8.2432,3,6,5.2432,6,8v7c0,0.5527-0.4478,1-1,1    s-1-0.4473-1-1V8c0-3.8594,3.1401-7,7-7h10c3.8594,0,7,3.1406,7,7v7C28,15.5527,27.5527,16,27,16z" fill="#4391B2"/>
</g>
<path d="M9,14v10c0,0.55-0.45,1-1,1s-1-0.45-1-1H4c-1.65,0-3-1.35-3-3v-4c0-1.65,1.35-3,3-3h3c0-0.55,0.45-1,1-1   S9,13.45,9,14z" fill="#48B1DD"/>
<path d="M31,17v4c0,1.65-1.35,3-3,3h-3c0,0.55-0.45,1-1,1s-1-0.45-1-1V14c0-0.55,0.45-1,1-1s1,0.45,1,1h3   C29.65,14,31,15.35,31,17z" fill="#48B1DD"/>
<g>
<path d="M19,28c0,1.65-1.35,3-3,3s-3-1.35-3-3c0-1.65,1.35-3,3-3S19,26.35,19,28z" fill="#48B1DD"/>
</g>
</g>
<g id="Layer_15"/>
<g id="Layer_16"/>
<g id="Layer_17"/>
<g id="Layer_18"/>
<g id="Layer_19"/>
<g id="Layer_20"/>
<g id="Layer_21"/>
<g id="Layer_22"/>
<g id="Layer_23"/>
<g id="Layer_24"/>
<g id="Layer_25"/>
<g id="Layer_26"/>
<g id="Layer_27"/>
<g id="Layer_28"/>
<g id="Layer_29"/>
<g id="Layer_30"/>
<g id="Layer_31"/>
</svg>