<?xml version="1.0" encoding="iso-8859-1"?>
<!-- Uploaded to: SVG Repo, www.svgrepo.com, Generator: SVG Repo Mixer Tools -->
<svg height="800px" width="800px" version="1.1" id="Layer_1" xmlns="http://www.w3.org/2000/svg" xmlns:xlink="http://www.w3.org/1999/xlink" 
	 viewBox="0 0 512 512" xml:space="preserve">
<path style="fill:#D5DCED;" d="M486.881,418.472H25.119c-9.446,0-17.102-7.656-17.102-17.102V204.693
	c0-9.446,7.656-17.102,17.102-17.102h461.762c9.446,0,17.102,7.656,17.102,17.102V401.37
	C503.983,410.815,496.327,418.472,486.881,418.472z"/>
<path style="fill:#C7CFE2;" d="M136.284,392.818c-56.672,0-102.614-45.942-102.614-102.614V187.591h-8.551
	c-9.446,0-17.102,7.656-17.102,17.102V401.37c0,9.446,7.656,17.102,17.102,17.102h461.762c9.446,0,17.102-7.656,17.102-17.102
	v-8.551H136.284z"/>
<path d="M486.881,179.574H264.017v-9.086c0-13.851-11.268-25.119-25.119-25.119H110.63c-5.01,0-9.086-4.076-9.086-9.086
	c0-5.01,4.076-9.086,9.086-9.086h256.534c13.851,0,25.119-11.268,25.119-25.119v-8.551c0-4.427-3.589-8.017-8.017-8.017
	c-4.427,0-8.017,3.589-8.017,8.017v8.551c0,5.01-4.076,9.086-9.086,9.086H110.63c-13.851,0-25.119,11.268-25.119,25.119
	c0,13.851,11.268,25.119,25.119,25.119h128.267c5.01,0,9.086,4.076,9.086,9.086v9.086H25.119C11.268,179.574,0,190.842,0,204.693
	V401.37c0,13.851,11.268,25.119,25.119,25.119h461.762c13.851,0,25.119-11.268,25.119-25.119V204.693
	C512,190.842,500.732,179.574,486.881,179.574z M495.967,401.37c0,5.01-4.076,9.086-9.086,9.086H25.119
	c-5.01,0-9.086-4.076-9.086-9.086V204.693c0-5.01,4.076-9.086,9.086-9.086h461.762c5.01,0,9.086,4.076,9.086,9.086V401.37z"/>
<path d="M50.772,238.363h59.858c4.427,0,8.017-3.589,8.017-8.017s-3.589-8.017-8.017-8.017H50.772c-4.427,0-8.017,3.589-8.017,8.017
	S46.345,238.363,50.772,238.363z"/>
<path d="M144.835,238.363h8.551c4.427,0,8.017-3.589,8.017-8.017s-3.589-8.017-8.017-8.017h-8.551c-4.427,0-8.017,3.589-8.017,8.017
	S140.408,238.363,144.835,238.363z"/>
<path d="M230.347,238.363h8.551c4.427,0,8.017-3.589,8.017-8.017s-3.589-8.017-8.017-8.017h-8.551c-4.427,0-8.017,3.589-8.017,8.017
	S225.919,238.363,230.347,238.363z"/>
<path d="M187.591,238.363h8.551c4.427,0,8.017-3.589,8.017-8.017s-3.589-8.017-8.017-8.017h-8.551c-4.427,0-8.017,3.589-8.017,8.017
	S183.163,238.363,187.591,238.363z"/>
<path d="M273.102,238.363h8.551c4.427,0,8.017-3.589,8.017-8.017s-3.589-8.017-8.017-8.017h-8.551c-4.427,0-8.017,3.589-8.017,8.017
	S268.675,238.363,273.102,238.363z"/>
<path d="M358.614,238.363h8.551c4.427,0,8.017-3.589,8.017-8.017s-3.589-8.017-8.017-8.017h-8.551c-4.427,0-8.017,3.589-8.017,8.017
	S354.186,238.363,358.614,238.363z"/>
<path d="M461.228,222.33h-17.102c-4.427,0-8.017,3.589-8.017,8.017s3.589,8.017,8.017,8.017h17.102c4.427,0,8.017-3.589,8.017-8.017
	S465.655,222.33,461.228,222.33z"/>
<path d="M401.37,238.363h8.551c4.427,0,8.017-3.589,8.017-8.017s-3.589-8.017-8.017-8.017h-8.551c-4.427,0-8.017,3.589-8.017,8.017
	S396.942,238.363,401.37,238.363z"/>
<path d="M315.858,238.363h8.551c4.427,0,8.017-3.589,8.017-8.017s-3.589-8.017-8.017-8.017h-8.551c-4.427,0-8.017,3.589-8.017,8.017
	S311.431,238.363,315.858,238.363z"/>
<path d="M127.733,256.534h-8.551c-4.427,0-8.017,3.589-8.017,8.017c0,4.427,3.589,8.017,8.017,8.017h8.551
	c4.427,0,8.017-3.589,8.017-8.017C135.749,260.124,132.16,256.534,127.733,256.534z"/>
<path d="M213.244,256.534h-8.551c-4.427,0-8.017,3.589-8.017,8.017c0,4.427,3.589,8.017,8.017,8.017h8.551
	c4.427,0,8.017-3.589,8.017-8.017C221.261,260.124,217.672,256.534,213.244,256.534z"/>
<path d="M170.489,256.534h-8.551c-4.427,0-8.017,3.589-8.017,8.017c0,4.427,3.589,8.017,8.017,8.017h8.551
	c4.427,0,8.017-3.589,8.017-8.017C178.505,260.124,174.916,256.534,170.489,256.534z"/>
<path d="M256,256.534h-8.551c-4.427,0-8.017,3.589-8.017,8.017c0,4.427,3.589,8.017,8.017,8.017H256
	c4.427,0,8.017-3.589,8.017-8.017C264.017,260.124,260.427,256.534,256,256.534z"/>
<path d="M341.511,256.534h-8.551c-4.427,0-8.017,3.589-8.017,8.017c0,4.427,3.589,8.017,8.017,8.017h8.551
	c4.427,0,8.017-3.589,8.017-8.017C349.528,260.124,345.939,256.534,341.511,256.534z"/>
<path d="M384.267,256.534h-8.551c-4.427,0-8.017,3.589-8.017,8.017c0,4.427,3.589,8.017,8.017,8.017h8.551
	c4.427,0,8.017-3.589,8.017-8.017C392.284,260.124,388.695,256.534,384.267,256.534z"/>
<path d="M298.756,256.534h-8.551c-4.427,0-8.017,3.589-8.017,8.017c0,4.427,3.589,8.017,8.017,8.017h8.551
	c4.427,0,8.017-3.589,8.017-8.017C306.772,260.124,303.183,256.534,298.756,256.534z"/>
<path d="M144.835,306.772h8.551c4.427,0,8.017-3.589,8.017-8.017c0-4.427-3.589-8.017-8.017-8.017h-8.551
	c-4.427,0-8.017,3.589-8.017,8.017C136.818,303.183,140.408,306.772,144.835,306.772z"/>
<path d="M230.347,306.772h8.551c4.427,0,8.017-3.589,8.017-8.017c0-4.427-3.589-8.017-8.017-8.017h-8.551
	c-4.427,0-8.017,3.589-8.017,8.017C222.33,303.183,225.919,306.772,230.347,306.772z"/>
<path d="M187.591,306.772h8.551c4.427,0,8.017-3.589,8.017-8.017c0-4.427-3.589-8.017-8.017-8.017h-8.551
	c-4.427,0-8.017,3.589-8.017,8.017C179.574,303.183,183.163,306.772,187.591,306.772z"/>
<path d="M273.102,306.772h8.551c4.427,0,8.017-3.589,8.017-8.017c0-4.427-3.589-8.017-8.017-8.017h-8.551
	c-4.427,0-8.017,3.589-8.017,8.017C265.086,303.183,268.675,306.772,273.102,306.772z"/>
<path d="M358.614,306.772h8.551c4.427,0,8.017-3.589,8.017-8.017c0-4.427-3.589-8.017-8.017-8.017h-8.551
	c-4.427,0-8.017,3.589-8.017,8.017C350.597,303.183,354.186,306.772,358.614,306.772z"/>
<path d="M401.37,306.772h8.551c4.427,0,8.017-3.589,8.017-8.017c0-4.427-3.589-8.017-8.017-8.017h-8.551
	c-4.427,0-8.017,3.589-8.017,8.017C393.353,303.183,396.942,306.772,401.37,306.772z"/>
<path d="M315.858,306.772h8.551c4.427,0,8.017-3.589,8.017-8.017c0-4.427-3.589-8.017-8.017-8.017h-8.551
	c-4.427,0-8.017,3.589-8.017,8.017C307.841,303.183,311.431,306.772,315.858,306.772z"/>
<path d="M127.733,324.944h-8.551c-4.427,0-8.017,3.589-8.017,8.017c0,4.427,3.589,8.017,8.017,8.017h8.551
	c4.427,0,8.017-3.589,8.017-8.017C135.749,328.533,132.16,324.944,127.733,324.944z"/>
<path d="M84.977,324.944H50.772c-4.427,0-8.017,3.589-8.017,8.017c0,4.427,3.589,8.017,8.017,8.017h34.205
	c4.427,0,8.017-3.589,8.017-8.017C92.994,328.533,89.404,324.944,84.977,324.944z"/>
<path d="M461.228,324.944h-42.756c-4.427,0-8.017,3.589-8.017,8.017c0,4.427,3.589,8.017,8.017,8.017h42.756
	c4.427,0,8.017-3.589,8.017-8.017C469.244,328.533,465.655,324.944,461.228,324.944z"/>
<path d="M50.772,306.772h59.858c4.427,0,8.017-3.589,8.017-8.017c0-4.427-3.589-8.017-8.017-8.017H50.772
	c-4.427,0-8.017,3.589-8.017,8.017C42.756,303.183,46.345,306.772,50.772,306.772z"/>
<path d="M461.228,290.739h-17.102c-4.427,0-8.017,3.589-8.017,8.017c0,4.427,3.589,8.017,8.017,8.017h17.102
	c4.427,0,8.017-3.589,8.017-8.017C469.244,294.328,465.655,290.739,461.228,290.739z"/>
<path d="M50.772,272.568h34.205c4.427,0,8.017-3.589,8.017-8.017c0-4.427-3.589-8.017-8.017-8.017H50.772
	c-4.427,0-8.017,3.589-8.017,8.017C42.756,268.979,46.345,272.568,50.772,272.568z"/>
<path d="M461.228,256.534h-42.756c-4.427,0-8.017,3.589-8.017,8.017c0,4.427,3.589,8.017,8.017,8.017h42.756
	c4.427,0,8.017-3.589,8.017-8.017C469.244,260.124,465.655,256.534,461.228,256.534z"/>
<path d="M213.244,324.944h-8.551c-4.427,0-8.017,3.589-8.017,8.017c0,4.427,3.589,8.017,8.017,8.017h8.551
	c4.427,0,8.017-3.589,8.017-8.017C221.261,328.533,217.672,324.944,213.244,324.944z"/>
<path d="M170.489,324.944h-8.551c-4.427,0-8.017,3.589-8.017,8.017c0,4.427,3.589,8.017,8.017,8.017h8.551
	c4.427,0,8.017-3.589,8.017-8.017C178.505,328.533,174.916,324.944,170.489,324.944z"/>
<path d="M256,324.944h-8.551c-4.427,0-8.017,3.589-8.017,8.017c0,4.427,3.589,8.017,8.017,8.017H256
	c4.427,0,8.017-3.589,8.017-8.017C264.017,328.533,260.427,324.944,256,324.944z"/>
<path d="M341.511,324.944h-8.551c-4.427,0-8.017,3.589-8.017,8.017c0,4.427,3.589,8.017,8.017,8.017h8.551
	c4.427,0,8.017-3.589,8.017-8.017C349.528,328.533,345.939,324.944,341.511,324.944z"/>
<path d="M384.267,324.944h-8.551c-4.427,0-8.017,3.589-8.017,8.017c0,4.427,3.589,8.017,8.017,8.017h8.551
	c4.427,0,8.017-3.589,8.017-8.017C392.284,328.533,388.695,324.944,384.267,324.944z"/>
<path d="M298.756,324.944h-8.551c-4.427,0-8.017,3.589-8.017,8.017c0,4.427,3.589,8.017,8.017,8.017h8.551
	c4.427,0,8.017-3.589,8.017-8.017C306.772,328.533,303.183,324.944,298.756,324.944z"/>
<path d="M153.386,359.148h-8.551c-4.427,0-8.017,3.589-8.017,8.017c0,4.427,3.589,8.017,8.017,8.017h8.551
	c4.427,0,8.017-3.589,8.017-8.017C161.403,362.738,157.814,359.148,153.386,359.148z"/>
<path d="M110.63,359.148h-8.551c-4.427,0-8.017,3.589-8.017,8.017c0,4.427,3.589,8.017,8.017,8.017h8.551
	c4.427,0,8.017-3.589,8.017-8.017C118.647,362.738,115.058,359.148,110.63,359.148z"/>
<path d="M67.875,359.148H50.772c-4.427,0-8.017,3.589-8.017,8.017c0,4.427,3.589,8.017,8.017,8.017h17.102
	c4.427,0,8.017-3.589,8.017-8.017C75.891,362.738,72.302,359.148,67.875,359.148z"/>
<path d="M461.228,359.148h-17.102c-4.427,0-8.017,3.589-8.017,8.017c0,4.427,3.589,8.017,8.017,8.017h17.102
	c4.427,0,8.017-3.589,8.017-8.017C469.244,362.738,465.655,359.148,461.228,359.148z"/>
<path d="M238.898,359.148h-8.551c-4.427,0-8.017,3.589-8.017,8.017c0,4.427,3.589,8.017,8.017,8.017h8.551
	c4.427,0,8.017-3.589,8.017-8.017C246.914,362.738,243.325,359.148,238.898,359.148z"/>
<path d="M196.142,359.148h-8.551c-4.427,0-8.017,3.589-8.017,8.017c0,4.427,3.589,8.017,8.017,8.017h8.551
	c4.427,0,8.017-3.589,8.017-8.017C204.159,362.738,200.569,359.148,196.142,359.148z"/>
<path d="M281.653,359.148h-8.551c-4.427,0-8.017,3.589-8.017,8.017c0,4.427,3.589,8.017,8.017,8.017h8.551
	c4.427,0,8.017-3.589,8.017-8.017C289.67,362.738,286.081,359.148,281.653,359.148z"/>
<path d="M367.165,359.148h-8.551c-4.427,0-8.017,3.589-8.017,8.017c0,4.427,3.589,8.017,8.017,8.017h8.551
	c4.427,0,8.017-3.589,8.017-8.017C375.182,362.738,371.592,359.148,367.165,359.148z"/>
<path d="M409.921,359.148h-8.551c-4.427,0-8.017,3.589-8.017,8.017c0,4.427,3.589,8.017,8.017,8.017h8.551
	c4.427,0,8.017-3.589,8.017-8.017C417.937,362.738,414.348,359.148,409.921,359.148z"/>
<path d="M324.409,359.148h-8.551c-4.427,0-8.017,3.589-8.017,8.017c0,4.427,3.589,8.017,8.017,8.017h8.551
	c4.427,0,8.017-3.589,8.017-8.017C332.426,362.738,328.837,359.148,324.409,359.148z"/>
</svg>