<?xml version="1.0" encoding="utf-8"?>
<!-- Uploaded to: SVG Repo, www.svgrepo.com, Generator: SVG Repo Mixer Tools -->
<svg width="800px" height="800px" viewBox="0 0 1024 1024" class="icon"  version="1.1" xmlns="http://www.w3.org/2000/svg"><path d="M801.5 462.2l-23-23c-2.2-2.2-2.2-5.7 0-7.8l10.8-10.8c2.2-2.2 5.7-2.2 7.8 0l23 23c2.2 2.2 2.2 5.7 0 7.8l-10.8 10.8c-2.1 2.1-5.6 2.1-7.8 0z" fill="#68A240" /><path d="M805.5 469.3c-2.9 0-5.7-1.1-7.8-3.2l-23-23c-2.1-2.1-3.2-4.9-3.2-7.8s1.1-5.7 3.2-7.8l10.8-10.8c2.1-2.1 4.9-3.2 7.8-3.2s5.7 1.1 7.8 3.2l23 23c2.1 2.1 3.2 4.9 3.2 7.8s-1.1 5.7-3.2 7.8L813.3 466c-2.1 2.1-4.9 3.3-7.8 3.3z m-12.2-44.8l-10.8 10.8 23 23 10.8-10.8-23-23z" fill="#333336" /><path d="M716.5 511c-14.2 0-27.6-5.5-37.6-15.5s-15.5-23.4-15.5-37.6c0-14.2 5.5-27.6 15.5-37.6l73.2-74.1c13.5-13.5 21-31.6 21-50.9 0-19.3-7.4-37.3-21-50.9-13.5-13.5-31.6-21-50.9-21-19.3 0-37.3 7.4-50.9 21l-75 73.2-7.7-7.9 74.9-73.1c15.6-15.6 36.4-24.1 58.6-24.1 22.2 0 43 8.6 58.6 24.2S784 273 784 295.2c0 22.2-8.6 43-24.2 58.6L686.7 428c-8 8-12.3 18.5-12.3 29.8s4.4 21.9 12.3 29.8c7.9 7.9 18.5 12.3 29.8 12.3s21.9-4.4 29.8-12.3l46.2-45.1 7.7 7.9-46.1 45c-10 10.1-23.4 15.6-37.6 15.6z" fill="#333336" /><path d="M581.4 340.2L551 309.8c-4.4-4.4-4.4-11.7 0-16.1l10.2-10.2c4.4-4.4 11.7-4.4 16.1 0l30.4 30.4c4.4 4.4 4.4 11.7 0 16.1l-10.2 10.2c-4.4 4.4-11.7 4.4-16.1 0z" fill="#68A240" /><path d="M589.4 349c-4.3 0-8.6-1.6-11.9-4.9l-30.4-30.4c-6.6-6.6-6.6-17.3 0-23.9l10.2-10.2c3.2-3.2 7.4-4.9 11.9-4.9s8.8 1.8 11.9 4.9l30.4 30.4c3.2 3.2 4.9 7.4 4.9 11.9s-1.8 8.8-4.9 11.9L601.3 344c-3.2 3.4-7.5 5-11.9 5z m-4.1-12.7c2.3 2.3 6 2.3 8.3 0l10.2-10.2c1.1-1.1 1.7-2.6 1.7-4.2s-0.6-3.1-1.7-4.2l-30.4-30.4c-1.1-1.1-2.6-1.7-4.2-1.7s-3.1 0.6-4.2 1.7l-10.2 10.2c-2.3 2.3-2.3 6 0 8.3l30.5 30.5z" fill="#333336" /><path d="M505 715.9c-115.2 115.2-267.9 116.7-361.1 23.5s-91.7-246 23.5-361.1 282-181.8 400.7-63.1c110.5 110.5 52 285.6-63.1 400.7z" fill="#FFD632" /><path d="M304.6 811.6c-62.2 0-120.3-24-164.6-68.3-47.1-47.1-71.3-109.8-68-176.5 1.6-33.5 10.1-66.8 25-98.9 15.6-33.5 38-65 66.5-93.5 62.4-62.4 134-105.3 201.7-120.7 79.4-18.2 151 1.8 206.8 57.7 52.7 52.7 71.6 123.1 54.6 203.6-7.6 35.8-22 72.2-42.8 108.1-20.2 34.7-45.4 67.3-74.8 96.8-28.5 28.5-59.9 50.9-93.5 66.5-32.2 15-65.5 23.4-98.9 25-4.1 0.1-8.1 0.2-12 0.2z m116.5-553.5c-17.3 0-35.2 2.1-53.5 6.3-65.7 15-135.4 56.8-196.4 117.8-27.6 27.6-49.2 58-64.3 90.3-14.4 30.9-22.5 62.8-24 94.8-3.1 63.6 19.9 123.3 64.8 168.2 44.9 44.9 104.6 67.9 168.2 64.8 32-1.6 64-9.6 94.8-24 32.4-15.1 62.8-36.7 90.3-64.3l3.9 3.9-3.9-3.9c58.5-58.5 100.3-131.1 114.7-199.4 11.3-53.5 11.5-130.5-51.6-193.6-27.7-27.7-59.3-46.2-94-55-15.7-3.9-32.1-5.9-49-5.9z" fill="#333336" /><path d="M457.5 702.9c-104.8 104.8-237.1 113-313.6 36.5s-68.3-208.8 36.5-313.6 252.2-170 349.7-72.6c90.6 90.7 32.2 244.8-72.6 349.7z" fill="#D5D9CF" /><path d="M269.5 795.7c-50 0-95.3-18.2-129.5-52.4-38.9-38.9-57.2-92.4-51.3-150.6 6-59.4 37.2-120.1 87.8-170.8 56.8-56.8 120.7-97.1 180-113.6 69.9-19.4 131.3-5.2 177.4 41 43.6 43.6 56.9 104 38.5 174.8-16 61.5-56.5 128.1-111 182.7-50.7 50.7-111.3 81.9-170.8 87.8-7.1 0.7-14.1 1.1-21.1 1.1z m145.8-484.9c-17.8 0-36.5 2.7-55.9 8.1-57.5 15.9-119.7 55.3-175.2 110.7-48.9 48.9-79 107.2-84.7 164.1-5.5 54.9 11.6 105.2 48.2 141.8 36.6 36.6 86.9 53.7 141.8 48.2 56.9-5.7 115.2-35.8 164.1-84.7 53.2-53.2 92.7-118 108.2-177.6 21.9-84.4-7.3-135.9-35.6-164.3-22.6-22.6-48.9-37-78.2-43-10.6-2.2-21.4-3.3-32.7-3.3z" fill="#333336" /><path d="M345.4 560c45.6 45.6 97 79.6 148.6 100.9 80.1-101 120.1-234.1 40.7-313.4-82-82-204.5-43.7-302.1 31.3 19.5 62.4 57.6 126.1 112.8 181.2z" fill="#68A240" /><path d="M495.7 667.6l-3.8-1.6C438 643.7 386 608.4 341.5 563.9c-54.1-54.1-93.6-117.6-114.1-183.4l-1.1-3.7 3-2.3c53.5-41.1 108.6-67.3 159.4-75.6 28.4-4.7 55.1-3.6 79.5 3.1 26.4 7.3 50.1 21.3 70.5 41.7 38.1 38.1 52.2 91.1 41 153.5-9.8 54.1-38.6 113.5-81.3 167.3l-2.7 3.1zM239.1 380.9c20.3 62.8 58.3 123.4 110.2 175.2 42.4 42.4 91.8 76.3 143 98.1 40.1-51.4 67.2-107.8 76.5-159.1 10.6-58.6-2.5-108.3-37.9-143.7-36.9-36.9-84.1-50.9-140.4-41.7-48 7.9-100.3 32.5-151.4 71.2z" fill="#333336" /><path d="M530 353.2L334.3 548.9" fill="#F35B52" /><path d="M330.457 545.045l195.725-195.726 7.778 7.778-195.725 195.726z" fill="#333336" /><path d="M414.3 487.4L395.9 469c-8-8-8-21.2 0-29.2l58.8-58.8c8-8 21.2-8 29.2 0l18.4 18.4c8 8 8 21.2 0 29.2l-58.8 58.8c-8 8-21.1 8-29.2 0z" fill="#D8A128" /><path d="M428.9 498.9c-6.7 0-13.4-2.5-18.5-7.6L392 472.8c-4.9-4.9-7.6-11.5-7.6-18.5s2.7-13.6 7.6-18.5l58.8-58.8c10.2-10.2 26.8-10.2 37 0l18.4 18.4c10.2 10.2 10.2 26.8 0 37l-58.8 58.8c-5.1 5.1-11.8 7.7-18.5 7.7z m40.4-118.5c-3.9 0-7.8 1.5-10.7 4.4l-58.8 58.8c-2.8 2.8-4.4 6.6-4.4 10.7s1.6 7.9 4.4 10.7l18.4 18.4c5.9 5.9 15.5 5.9 21.4 0l58.8-58.8c5.9-5.9 5.9-15.5 0-21.4L480 384.8c-3-2.9-6.9-4.4-10.7-4.4z" fill="#333336" /><path d="M470.3 413L428 455.2" fill="#FFC86B" /><path d="M428 460.7c-1.4 0-2.8-0.5-3.9-1.6-2.1-2.1-2.1-5.6 0-7.8l42.3-42.3c2.1-2.1 5.6-2.1 7.8 0 2.1 2.1 2.1 5.6 0 7.8l-42.3 42.3c-1 1.1-2.5 1.6-3.9 1.6z" fill="#333336" /><path d="M314.551719 568.741844a26.4 26.4 0 1 0 37.334587-37.33589 26.4 26.4 0 1 0-37.334587 37.33589Z" fill="#D8A128" /><path d="M333.2 581.9c-8.5 0-16.5-3.3-22.5-9.3s-9.3-14-9.3-22.5 3.3-16.5 9.3-22.5 14-9.3 22.5-9.3 16.5 3.3 22.5 9.3c12.4 12.4 12.4 32.6 0 45.1-6 5.9-14 9.2-22.5 9.2z m0-52.7c-5.6 0-10.8 2.2-14.7 6.1s-6.1 9.2-6.1 14.7c0 5.6 2.2 10.8 6.1 14.7s9.2 6.1 14.7 6.1 10.8-2.2 14.7-6.1c8.1-8.1 8.1-21.4 0-29.5-3.9-3.8-9.1-6-14.7-6z" fill="#333336" /><path d="M905.706 374.489l-38.608-38.608 38.89-38.89 38.608 38.607z" fill="#D5D9CF" /><path d="M905.7 382.3l-46.4-46.4 46.7-46.7 46.4 46.4-46.7 46.7z m-30.9-46.4l30.9 30.9 31.1-31.1-30.9-30.9-31.1 31.1z" fill="#333336" /><path d="M873 322.9l45.6 45.6c4.7 4.7 4.7 12.3 0 16.9l-38.9 38.9c-4.6 4.6-10.1 8.2-16.1 10.6l-15.3 6.1-12.5 10.7c-2.3 2-5.7 1.8-7.8-0.3l-37.9-37.9c-2.2-2.2-2.3-5.6-0.2-7.9l10.3-11.6 7.3-17.4c2.4-5.8 5.9-11 10.4-15.5l38.2-38.2c4.6-4.6 12.2-4.6 16.9 0z" fill="#68A240" /><path d="M832.2 458.7c-2.9 0-5.8-1.1-8-3.3l-37.9-37.9c-4.2-4.2-4.4-11-0.5-15.5l9.7-11 6.9-16.5c2.7-6.5 6.6-12.3 11.6-17.2l38.2-38.2c6.8-6.8 17.9-6.8 24.7 0l45.6 45.6c3.3 3.3 5.1 7.7 5.1 12.4s-1.8 9.1-5.1 12.4l-38.9 38.9c-5.2 5.2-11.2 9.1-18 11.9l-14.4 5.8-11.7 9.9c-2.1 1.8-4.7 2.7-7.3 2.7z m32.3-133.8c-1.7 0-3.3 0.6-4.6 1.9L821.8 365c-3.9 3.9-7 8.6-9.2 13.7l-7.6 18.2-11 12.4c-0.1 0.1-0.1 0.3 0 0.4l37.9 37.9c0.1 0.1 0.3 0.1 0.4 0l13.1-11.3 16.1-6.5c5.4-2.2 10.2-5.3 14.3-9.4l38.9-38.9c1.2-1.2 1.9-2.9 1.9-4.6 0-1.7-0.7-3.4-1.9-4.6l-45.6-45.6c-1.2-1.1-2.9-1.8-4.6-1.8z" fill="#333336" /></svg>